# xmcd CD database file
#
# Track frame offsets:
#	150
#	21941
#	41518
#	59269
#	81673
#	98756
#	118026
#	139929
#	162821
#	177841
#	190855
#	207911
#	231221
#
# Disc length: 3416 seconds
#
# Revision: 0
# Processed by: cddbd v1.5.1PL0 Copyright (c) Steve Scherf et al.
# Submitted via: CDex 1.51
#
DISCID=b10d560d
DTITLE=Big and Rich - Horse Of A Different Color
DYEAR=2004
DGENRE=Country
TTITLE0=Big and Rich - Rollin'
TTITLE1=Big and Rich - Wild West Show
TTITLE2=Big and Rich - Big Time
TTITLE3=Big and Rich - Kick My Ass
TTITLE4=Big and Rich - Six Foot Town
TTITLE5=Big and Rich - Holy Water
TTITLE6=Big and Rich - Saved
TTITLE7=Big and Rich - Real World
TTITLE8=Big and Rich - Save A Horse(Ride A Cowboy)
TTITLE9=Big and Rich - Drinkin Bout' You
TTITLE10=Big and Rich - Love Train
TTITLE11=Big and Rich - Deadwood Mountain
TTITLE12=Big and Rich - Live This Life
EXTD=YEAR: 2004
EXTT0=
EXTT1=
EXTT2=
EXTT3=
EXTT4=
EXTT5=
EXTT6=
EXTT7=
EXTT8=
EXTT9=
EXTT10=
EXTT11=
EXTT12=
PLAYORDER=
